# xmcd CD database file
#
# Track frame offsets:
#	182
#	16895
#	32305
#	44197
#	58737
#	74302
#	90190
#	108952
#	122652
#	138567
#	154370
#	169287
#	185220
#	200145
#	214087
#	234410
#	251032
#	266370
#	284410
#	298120
#
# Disc length: 4208 seconds
#
# Revision: 2
# Processed by: cddbd v1.5.2PL0 Copyright (c) Steve Scherf et al.
# Submitted via: CDex 1.70beta2
#
DISCID=34106e14
DTITLE=Various Artist - New American Country 1
DYEAR=1997
DGENRE=New Country
TTITLE0=Mary Chapin Carpenter - House of Cards
TTITLE1=Vince Gill - High Lonesome Sound
TTITLE2=Suzy Boguss - Give Me Some Wheels
TTITLE3=Sammy Kershaw - Vidalia
TTITLE4=Keith Stegall - 1969
TTITLE5=Trisha Yearwood - Fairytale
TTITLE6=Toby Keith - The Lonely
TTITLE7=Reba McEntire - The Fear Of Being Alone
TTITLE8=Mark Chesnutt - Wrong Place, Wrong Time
TTITLE9=Lisa Brokop - West Of Crazy
TTITLE10=George Strait - Carried Away
TTITLE11=Ronna Reeves - Never Let Him See Me Cry
TTITLE12=Marty Stuart - Thanks To You
TTITLE13=Mark Wills - Jacob's Ladder
TTITLE14=Patti Loveless - Lonely To Long
TTITLE15=Trisha Yearwood - Believe Me Baby
TTITLE16=Billy Ray Cayrus - Achy Breaky Heart
TTITLE17=Terri Clark - Suddenly Single
TTITLE18=Marty Stuart and Travis Tritt - Honky Tonkin's What I Do Best
TTITLE19=Willie Nelson - I'm Not Trying To Forget You Anymore
EXTD=(c)1997 Polygramm GmbH, Hamburg Germany - POLYMEDIA Music Service\nupc 731455330021\nKatalog: 553300-2 YEAR: 1997
EXTT0=
EXTT1=
EXTT2=
EXTT3=
EXTT4=
EXTT5=
EXTT6=
EXTT7=
EXTT8=
EXTT9=
EXTT10=
EXTT11=
EXTT12=
EXTT13=
EXTT14=
EXTT15=
EXTT16=
EXTT17=
EXTT18=
EXTT19=
PLAYORDER=
